<svg id="Layer_1" data-name="Layer 1" xmlns="http://www.w3.org/2000/svg" viewBox="0 0 134.26 119.4"><defs><style>.cls-1{fill:#231f20;}.cls-2{fill:#007056;}.cls-3{fill:#fff;}</style></defs><title>B</title><path class="cls-1" d="M136.49,27.09L124.79,15h0c-3.37-3.48-9.72-6.85-21.7-6.85H25.17l3,27.92,7.37,7.37L4.94,117.55l10,10H72c19.31,0,33.54-7.66,39.05-21l6.27-15.15c1.79-4.34,3.08-14.39-4.52-22l17.42-9.58,0.15-.08L137.33,43C139.74,37.14,140.18,30.9,136.49,27.09Z" transform="translate(-4.94 -8.15)"/><path class="cls-2" d="M62,117.55H4.94L37.05,39.86l9.06-3.79H28.2l-3-27.92h77.92c14.4,0,20.68,4.86,23.41,8.94,3,4.41,3.25,10.05.84,15.89l-6.95,16.79-0.15.08-17.42,9.58c7.59,7.58,6.3,17.63,4.52,22l-6.27,15.15C95.55,109.89,81.31,117.55,62,117.55Zm-6.6-27.92h4.83c3.91,0,7.05-3,9.63-9.21C70,80.06,71,76.47,67,72.1l-3-3.28ZM77.54,36.07L73.43,46l15-9.94H77.54Z" transform="translate(-4.94 -8.15)"/><path class="cls-3" d="M62,113.8H10.55L39.93,42.72l24.89-10.4H31.57L29.35,11.9h73.74c10.09,0,17.11,2.52,20.29,7.28,2.26,3.39,2.43,7.66.49,12.37l-6.44,15.57L96.05,58.86l1.48,1c11.21,7.84,6.38,19.95,6.33,20.07L97.59,95.11C90.63,112,70.39,113.8,62,113.8ZM49.8,93.38H60.24c5.53,0,9.94-3.9,13.12-11.6,0.09-.23,2.25-5.88-3.59-12.22l-7-7.61ZM75,32.32l-9.75,23.6,35.57-23.6H75Z" transform="translate(-4.94 -8.15)"/></svg>